<svg height="454pt" viewBox="0 -1 454.002 454" width="454pt" xmlns="http://www.w3.org/2000/svg"><path d="m185.839844 123.226562h-34.339844c-5.800781 0-10.5 4.699219-10.5 10.5v34.179688h55.339844v-34.179688c0-5.800781-4.699219-10.5-10.5-10.5zm0 0" fill="#f16c7a"/><path d="m185.839844 120.226562h-34.339844c-7.445312 0-13.5 6.054688-13.5 13.5v34.179688c0 1.65625 1.34375 3 3 3h55.339844c1.65625 0 3-1.34375 3-3v-34.179688c0-7.449218-6.054688-13.5-13.5-13.5zm7.5 44.679688h-49.339844v-31.179688c0-4.136718 3.363281-7.5 7.5-7.5h34.339844c4.136718 0 7.5 3.363282 7.5 7.5zm0 0" fill="#3a312a"/><path d="m302.5 123.226562h-34.339844c-5.800781 0-10.5 4.699219-10.5 10.5v34.179688h55.339844v-34.179688c0-5.800781-4.699219-10.5-10.5-10.5zm0 0" fill="#f16c7a"/><path d="m302.5 120.226562h-34.339844c-7.445312 0-13.5 6.054688-13.5 13.5v34.179688c0 1.65625 1.34375 3 3 3h55.339844c1.65625 0 3-1.34375 3-3v-34.179688c0-7.449218-6.054688-13.5-13.5-13.5zm7.5 44.679688h-49.339844v-31.179688c0-4.136718 3.367188-7.5 7.5-7.5h34.339844c4.132812 0 7.5 3.363282 7.5 7.5zm0 0" fill="#3a312a"/><path d="m333.148438 3h-212.296876c-65.089843 0-117.851562 52.765625-117.851562 117.851562 0 21.691407 17.585938 39.277344 39.277344 39.277344h32.378906c21.695312 0 39.277344-17.585937 39.277344-39.277344 0-21.691406 17.585937-39.277343 39.277344-39.277343h147.578124c21.691407 0 39.273438 17.585937 39.273438 39.277343 0 21.691407 17.585938 39.277344 39.277344 39.277344h32.382812c21.691406 0 39.273438-17.585937 39.273438-39.277344.003906-65.085937-52.757813-117.851562-117.847656-117.851562zm0 0" fill="#8ac6dd"/><path d="m333.148438 0h-212.296876c-66.636718 0-120.851562 54.214844-120.851562 120.851562 0 23.3125 18.964844 42.277344 42.277344 42.277344h32.378906c23.3125 0 42.277344-18.964844 42.277344-42.277344 0-20.003906 16.273437-36.277343 36.277344-36.277343h59.011718c1.65625 0 3-1.339844 3-3 0-1.65625-1.34375-3-3-3h-59.011718c-23.3125 0-42.277344 18.964843-42.277344 42.277343 0 20-16.273438 36.277344-36.277344 36.277344h-32.378906c-20.003906 0-36.277344-16.277344-36.277344-36.277344 0-63.328124 51.523438-114.851562 114.851562-114.851562h212.296876c63.328124 0 114.851562 51.523438 114.851562 114.851562 0 20-16.273438 36.277344-36.277344 36.277344h-32.378906c-20.003906 0-36.28125-16.277344-36.28125-36.277344 0-23.3125-18.960938-42.277343-42.273438-42.277343h-59.015624c-1.65625 0-3 1.34375-3 3 0 1.660156 1.34375 3 3 3h59.015624c20 0 36.273438 16.273437 36.273438 36.277343 0 23.3125 18.964844 42.277344 42.28125 42.277344h32.378906c23.3125 0 42.277344-18.964844 42.277344-42.277344 0-66.636718-54.210938-120.851562-120.851562-120.851562zm0 0" fill="#3a312a"/><path d="m3.625 108.964844c-.398438 3.910156-.625 7.871094-.625 11.886718 0 21.691407 17.585938 39.277344 39.277344 39.277344h32.378906c21.695312 0 39.277344-17.585937 39.277344-39.277344 0-4.148437.65625-8.136718 1.851562-11.886718zm0 0" fill="#87796f"/><path d="m118.207031 107.195312c-.566406-.773437-1.464843-1.230468-2.421875-1.230468h-112.164062c-1.535156 0-2.828125 1.167968-2.984375 2.695312-.421875 4.167969-.636719 8.269532-.636719 12.191406 0 23.3125 18.964844 42.277344 42.277344 42.277344h32.378906c23.3125 0 42.277344-18.964844 42.277344-42.277344 0-3.730468.578125-7.421874 1.707031-10.972656.292969-.914062.132813-1.910156-.433594-2.683594zm-7.273437 13.65625c0 20-16.273438 36.277344-36.277344 36.277344h-32.378906c-20.003906 0-36.277344-16.277344-36.277344-36.277344 0-2.875.121094-5.851562.363281-8.886718h105.519531c-.628906 2.914062-.949218 5.890625-.949218 8.886718zm0 0" fill="#3a312a"/><path d="m450.375 108.964844h-112.160156c1.195312 3.75 1.851562 7.738281 1.851562 11.886718 0 21.691407 17.582032 39.277344 39.277344 39.277344h32.378906c21.691406 0 39.277344-17.585937 39.277344-39.277344 0-4.015624-.226562-7.976562-.625-11.886718zm0 0" fill="#87796f"/><path d="m453.363281 108.660156c-.15625-1.53125-1.449219-2.695312-2.984375-2.695312h-112.164062c-.957032 0-1.855469.457031-2.421875 1.226562-.5625.773438-.726563 1.769532-.433594 2.679688 1.128906 3.554687 1.707031 7.246094 1.707031 10.976562 0 23.3125 18.964844 42.277344 42.277344 42.277344h32.382812c23.308594 0 42.277344-18.964844 42.277344-42.277344-.003906-3.910156-.21875-8.007812-.640625-12.1875zm-41.640625 48.46875h-32.378906c-20.003906 0-36.28125-16.277344-36.28125-36.277344 0-2.996093-.316406-5.96875-.945312-8.886718h105.519531c.242187 3.042968.363281 5.972656.363281 8.886718 0 20.003907-16.273438 36.277344-36.277344 36.277344zm0 0" fill="#3a312a"/><path d="m423.039062 346.425781-85.140624-166.339843c-3.820313-7.480469-11.519532-12.179688-19.9375-12.179688h-182.699219c-8.441407 0-16.160157 4.738281-19.980469 12.257812l-38.324219 75.539063-13.902343 27.398437-32.132813 63.339844c-1.582031 3.140625-2.421875 6.621094-2.421875 10.140625v.242188c0 12.378906 10.039062 22.398437 22.398438 22.398437h352.203124c12.359376 0 22.398438-10.019531 22.398438-22.398437v-.203125c0-3.535156-.839844-7.035156-2.460938-10.195313zm0 0" fill="#8ac6dd"/><path d="m425.707031 345.058594-85.136719-166.335938c-4.351562-8.523437-13.015624-13.816406-22.609374-13.816406h-182.699219c-9.621094 0-18.300781 5.328125-22.65625 13.902344l-38.324219 75.539062c-.75 1.476563-.160156 3.285156 1.316406 4.035156 1.476563.75 3.285156.15625 4.035156-1.320312l38.320313-75.539062c3.328125-6.546876 9.957031-10.617188 17.304687-10.617188h182.703126c7.328124 0 13.945312 4.039062 17.269531 10.546875l85.136719 166.34375c1.394531 2.714844 2.128906 5.769531 2.128906 8.832031v.199219c0 10.695313-8.703125 19.398437-19.398438 19.398437h-352.199218c-10.695313 0-19.398438-8.703124-19.398438-19.398437v-.242187c0-3.019532.726562-6.0625 2.097656-8.78125l32.132813-63.339844c.75-1.480469.160156-3.285156-1.320313-4.035156-1.476562-.75-3.28125-.160157-4.03125 1.316406l-32.140625 63.347656c-1.789062 3.566406-2.738281 7.539062-2.738281 11.492188v.238281c0 14.003906 11.394531 25.402343 25.398438 25.402343h352.203124c14.003907 0 25.398438-11.394531 25.398438-25.402343v-.199219c0-4.011719-.964844-8.011719-2.792969-11.566406zm0 0" fill="#3a312a"/><path d="m403.101562 379.226562h-352.203124c-12.359376 0-22.398438-10.023437-22.398438-22.402343v70c0 12.378906 10.039062 22.402343 22.398438 22.402343h352.203124c12.359376 0 22.398438-10.023437 22.398438-22.402343v-70c0 12.378906-10.039062 22.402343-22.398438 22.402343zm0 0" fill="#87796f"/><path d="m425.5 353.824219c-1.65625 0-3 1.34375-3 3 0 10.699219-8.703125 19.402343-19.398438 19.402343h-352.203124c-10.695313 0-19.398438-8.703124-19.398438-19.402343 0-1.65625-1.34375-3-3-3s-3 1.34375-3 3v70c0 14.003906 11.394531 25.402343 25.398438 25.402343h352.203124c14.003907 0 25.398438-11.394531 25.398438-25.402343v-70c0-1.65625-1.34375-3-3-3zm-3 73c0 10.699219-8.703125 19.402343-19.398438 19.402343h-352.203124c-10.695313 0-19.398438-8.703124-19.398438-19.402343v-53.621094c4.660156 5.515625 11.628906 9.023437 19.398438 9.023437h352.203124c7.769532 0 14.738282-3.507812 19.398438-9.023437zm0 0" fill="#3a312a"/><path d="m164.835938 198.066406h-28.671876c-4.785156 0-8.664062 3.878906-8.664062 8.664063v16.667969c0 4.785156 3.878906 8.664062 8.664062 8.664062h28.667969c4.785157 0 8.664063-3.878906 8.664063-8.664062v-16.667969c.003906-4.785157-3.875-8.664063-8.660156-8.664063zm0 0" fill="#d7e057"/><path d="m164.835938 195.066406h-28.671876c-6.433593 0-11.664062 5.234375-11.664062 11.664063v16.667969c0 6.429687 5.234375 11.664062 11.664062 11.664062h28.667969c6.433594 0 11.664063-5.234375 11.664063-11.664062v-16.667969c.003906-6.433594-5.230469-11.664063-11.660156-11.664063zm5.664062 28.332032c0 3.125-2.542969 5.667968-5.664062 5.667968h-28.671876c-3.125 0-5.664062-2.542968-5.664062-5.667968v-16.664063c0-3.128906 2.542969-5.667969 5.664062-5.667969h28.667969c3.125 0 5.664063 2.542969 5.664063 5.667969v16.664063zm0 0" fill="#3a312a"/><path d="m241.335938 198.066406h-28.667969c-4.785157 0-8.664063 3.878906-8.664063 8.664063v16.667969c0 4.785156 3.878906 8.664062 8.664063 8.664062h28.667969c4.785156 0 8.664062-3.878906 8.664062-8.664062v-16.667969c0-4.785157-3.878906-8.664063-8.664062-8.664063zm0 0" fill="#d7e057"/><path d="m241.335938 195.066406h-28.667969c-6.433594 0-11.664063 5.234375-11.664063 11.664063v16.667969c0 6.429687 5.230469 11.664062 11.664063 11.664062h28.667969c6.433593 0 11.664062-5.234375 11.664062-11.664062v-16.667969c0-6.433594-5.230469-11.664063-11.664062-11.664063zm5.664062 28.332032c0 3.125-2.542969 5.667968-5.664062 5.667968h-28.667969c-3.125 0-5.664063-2.542968-5.664063-5.667968v-16.664063c0-3.128906 2.539063-5.667969 5.664063-5.667969h28.667969c3.125 0 5.664062 2.542969 5.664062 5.667969zm0 0" fill="#3a312a"/><path d="m317.835938 198.066406h-28.667969c-4.785157 0-8.664063 3.878906-8.664063 8.664063v16.667969c0 4.785156 3.878906 8.664062 8.664063 8.664062h28.667969c4.785156 0 8.664062-3.878906 8.664062-8.664062v-16.667969c0-4.785157-3.878906-8.664063-8.664062-8.664063zm0 0" fill="#d7e057"/><path d="m317.835938 195.066406h-28.671876c-6.433593 0-11.664062 5.234375-11.664062 11.664063v16.667969c0 6.429687 5.230469 11.664062 11.664062 11.664062h28.671876c6.433593 0 11.664062-5.234375 11.664062-11.664062v-16.667969c0-6.433594-5.230469-11.664063-11.664062-11.664063zm5.664062 28.332032c0 3.125-2.542969 5.667968-5.664062 5.667968h-28.671876c-3.125 0-5.664062-2.542968-5.664062-5.667968v-16.664063c0-3.128906 2.542969-5.667969 5.664062-5.667969h28.671876c3.125 0 5.664062 2.542969 5.664062 5.667969zm0 0" fill="#3a312a"/><path d="m164.835938 256.066406h-28.671876c-4.785156 0-8.664062 3.878906-8.664062 8.664063v16.667969c0 4.785156 3.878906 8.664062 8.664062 8.664062h28.667969c4.785157 0 8.664063-3.878906 8.664063-8.664062v-16.667969c.003906-4.785157-3.875-8.664063-8.660156-8.664063zm0 0" fill="#d7e057"/><path d="m164.835938 253.066406h-28.671876c-6.433593 0-11.664062 5.234375-11.664062 11.664063v16.667969c0 6.429687 5.234375 11.664062 11.664062 11.664062h28.667969c6.433594 0 11.664063-5.234375 11.664063-11.664062v-16.667969c.003906-6.433594-5.230469-11.664063-11.660156-11.664063zm5.664062 28.332032c0 3.125-2.542969 5.667968-5.664062 5.667968h-28.671876c-3.125 0-5.664062-2.542968-5.664062-5.667968v-16.664063c0-3.128906 2.542969-5.667969 5.664062-5.667969h28.667969c3.125 0 5.664063 2.542969 5.664063 5.667969v16.664063zm0 0" fill="#3a312a"/><path d="m241.335938 256.066406h-28.667969c-4.785157 0-8.664063 3.878906-8.664063 8.664063v16.667969c0 4.785156 3.878906 8.664062 8.664063 8.664062h28.667969c4.785156 0 8.664062-3.878906 8.664062-8.664062v-16.667969c0-4.785157-3.878906-8.664063-8.664062-8.664063zm0 0" fill="#d7e057"/><path d="m241.335938 253.066406h-28.667969c-6.433594 0-11.664063 5.234375-11.664063 11.664063v16.667969c0 6.429687 5.230469 11.664062 11.664063 11.664062h28.667969c6.433593 0 11.664062-5.234375 11.664062-11.664062v-16.667969c0-6.433594-5.230469-11.664063-11.664062-11.664063zm5.664062 28.332032c0 3.125-2.542969 5.667968-5.664062 5.667968h-28.667969c-3.125 0-5.664063-2.542968-5.664063-5.667968v-16.664063c0-3.128906 2.539063-5.667969 5.664063-5.667969h28.667969c3.125 0 5.664062 2.542969 5.664062 5.667969zm0 0" fill="#3a312a"/><path d="m317.835938 256.066406h-28.667969c-4.785157 0-8.664063 3.878906-8.664063 8.664063v16.667969c0 4.785156 3.878906 8.664062 8.664063 8.664062h28.667969c4.785156 0 8.664062-3.878906 8.664062-8.664062v-16.667969c0-4.785157-3.878906-8.664063-8.664062-8.664063zm0 0" fill="#d7e057"/><path d="m317.835938 253.066406h-28.671876c-6.433593 0-11.664062 5.234375-11.664062 11.664063v16.667969c0 6.429687 5.230469 11.664062 11.664062 11.664062h28.671876c6.433593 0 11.664062-5.234375 11.664062-11.664062v-16.667969c0-6.433594-5.230469-11.664063-11.664062-11.664063zm5.664062 28.332032c0 3.125-2.542969 5.667968-5.664062 5.667968h-28.671876c-3.125 0-5.664062-2.542968-5.664062-5.667968v-16.664063c0-3.128906 2.542969-5.667969 5.664062-5.667969h28.671876c3.125 0 5.664062 2.542969 5.664062 5.667969zm0 0" fill="#3a312a"/><path d="m164.835938 314.066406h-28.671876c-4.785156 0-8.664062 3.878906-8.664062 8.664063v16.667969c0 4.785156 3.878906 8.664062 8.664062 8.664062h28.667969c4.785157 0 8.664063-3.878906 8.664063-8.664062v-16.667969c.003906-4.785157-3.875-8.664063-8.660156-8.664063zm0 0" fill="#d7e057"/><path d="m164.835938 311.066406h-28.671876c-6.433593 0-11.664062 5.234375-11.664062 11.664063v16.667969c0 6.429687 5.234375 11.664062 11.664062 11.664062h28.667969c6.433594 0 11.664063-5.234375 11.664063-11.664062v-16.667969c.003906-6.433594-5.230469-11.664063-11.660156-11.664063zm5.664062 28.332032c0 3.125-2.542969 5.667968-5.664062 5.667968h-28.671876c-3.125 0-5.664062-2.542968-5.664062-5.667968v-16.664063c0-3.128906 2.542969-5.667969 5.664062-5.667969h28.667969c3.125 0 5.664063 2.542969 5.664063 5.667969v16.664063zm0 0" fill="#3a312a"/><path d="m241.335938 314.066406h-28.667969c-4.785157 0-8.664063 3.878906-8.664063 8.664063v16.667969c0 4.785156 3.878906 8.664062 8.664063 8.664062h28.667969c4.785156 0 8.664062-3.878906 8.664062-8.664062v-16.667969c0-4.785157-3.878906-8.664063-8.664062-8.664063zm0 0" fill="#d7e057"/><path d="m241.335938 311.066406h-28.667969c-6.433594 0-11.664063 5.234375-11.664063 11.664063v16.667969c0 6.429687 5.230469 11.664062 11.664063 11.664062h28.667969c6.433593 0 11.664062-5.234375 11.664062-11.664062v-16.667969c0-6.433594-5.230469-11.664063-11.664062-11.664063zm5.664062 28.332032c0 3.125-2.542969 5.667968-5.664062 5.667968h-28.667969c-3.125 0-5.664063-2.542968-5.664063-5.667968v-16.664063c0-3.128906 2.539063-5.667969 5.664063-5.667969h28.667969c3.125 0 5.664062 2.542969 5.664062 5.667969zm0 0" fill="#3a312a"/><path d="m317.835938 314.066406h-28.667969c-4.785157 0-8.664063 3.878906-8.664063 8.664063v16.667969c0 4.785156 3.878906 8.664062 8.664063 8.664062h28.667969c4.785156 0 8.664062-3.878906 8.664062-8.664062v-16.667969c0-4.785157-3.878906-8.664063-8.664062-8.664063zm0 0" fill="#d7e057"/><path d="m317.835938 311.066406h-28.671876c-6.433593 0-11.664062 5.234375-11.664062 11.664063v16.667969c0 6.429687 5.230469 11.664062 11.664062 11.664062h28.671876c6.433593 0 11.664062-5.234375 11.664062-11.664062v-16.667969c0-6.433594-5.230469-11.664063-11.664062-11.664063zm5.664062 28.332032c0 3.125-2.542969 5.667968-5.664062 5.667968h-28.671876c-3.125 0-5.664062-2.542968-5.664062-5.667968v-16.664063c0-3.128906 2.542969-5.667969 5.664062-5.667969h28.671876c3.125 0 5.664062 2.542969 5.664062 5.667969zm0 0" fill="#3a312a"/><path d="m333.160156 6.003906h-29c58.28125 0 106.519532 43.640625 113.839844 99.960938h29c-7.320312-56.320313-55.558594-99.960938-113.839844-99.960938zm0 0" fill="#68a8bc"/><path d="m447.640625 111.964844h-29c.238281 3.039062.359375 5.980468.359375 8.878906 0 10-4.078125 19.082031-10.640625 25.640625-6.558594 6.5625-15.640625 10.640625-25.640625 10.640625h29c10 0 19.082031-4.078125 25.640625-10.640625 6.5625-6.558594 10.640625-15.640625 10.640625-25.640625 0-2.898438-.121094-5.839844-.359375-8.878906zm0 0" fill="#6b5b51"/><path d="m420.359375 347.785156-85.121094-166.339844c-3.339843-6.5-9.9375-10.539062-17.277343-10.539062h-22.800782c3.679688 2.097656 6.738282 5.257812 8.738282 9.179688l7.660156 14.980468h6.28125c6.421875 0 11.660156 5.238282 11.660156 11.660156v16.679688c0 1.679688-.359375 3.277344-1.019531 4.71875l60.558593 118.300781c1.621094 3.160157 2.460938 6.660157 2.460938 10.199219v19.601562h11.601562c10.699219 0 19.398438-8.703124 19.398438-19.402343 0-3.257813-.738281-6.320313-2.140625-9.039063zm0 0" fill="#68a8bc"/><path d="m403.101562 382.226562h-11.601562v44.597657c0 8.300781-4.5 15.539062-11.199219 19.402343h22.800781c10.699219 0 19.398438-8.703124 19.398438-19.402343v-53.621094c-4.660156 5.523437-11.621094 9.023437-19.398438 9.023437zm0 0" fill="#6b5b51"/><path d="m302.5 126.226562h-20.5c4.140625 0 7.5 3.359376 7.5 7.5v31.179688h20.5v-31.179688c0-4.140624-3.359375-7.5-7.5-7.5zm0 0" fill="#ce4e61"/></svg>