<?xml version="1.0"?>
<svg xmlns="http://www.w3.org/2000/svg" viewBox="0 0 64 64" width="512" height="512"><g id="Accountant"><path d="M57,41H39a1,1,0,0,0-1,1V57a1,1,0,0,0,1,1H57a1,1,0,0,0,1-1V42A1,1,0,0,0,57,41Zm-1,5H52V43h4ZM46,51V48h4v3Zm4,2v3H46V53Zm-6-2H40V48h4Zm2-5V43h4v3Zm6,2h4v3H52Zm-8-5v3H40V43ZM40,53h4v3H40Zm12,3V53h4v3Z"/><path d="M59,25H38.948L36.754,12.713A13,13,0,0,0,23.95,2h-1.9a13,13,0,0,0-12.8,10.714L6.855,26.123A5,5,0,0,0,11.78,32H16.7a11.1,11.1,0,0,0,1.3.786v3.479L9.723,38.854A10.943,10.943,0,0,0,2,49.35V61a1,1,0,0,0,1,1H59a3,3,0,0,0,3-3V28A3,3,0,0,0,59,25ZM10.967,59.494A8.1,8.1,0,0,1,9,54a8.268,8.268,0,0,1,1.873-5.409,8.963,8.963,0,0,0,2.512-5.38l.354-3.517,1.663-.521A7.9,7.9,0,0,0,23,44a7.892,7.892,0,0,0,7.6-4.828L34,40.235V59a2.966,2.966,0,0,0,.184,1H11.443A5.456,5.456,0,0,0,10.967,59.494ZM28,16h4v7a9,9,0,0,1-18,0V16H28Zm0,16.786a11.1,11.1,0,0,0,1.3-.786H34v6.14l-6-1.875ZM34,28v2H31.479A10.949,10.949,0,0,0,34,23V22a2.984,2.984,0,0,0,2.2-.982l.713,3.99A3,3,0,0,0,34,28Zm0-10a1,1,0,0,1,0,2ZM22.05,4h1.9a11,11,0,0,1,10.835,9.065l.586,3.282A2.965,2.965,0,0,0,34,16V15a1,1,0,0,0-1-1H30V12H28v2H26V10H24v4H13a1,1,0,0,0-1,1v1a2.964,2.964,0,0,0-1.37.347l.585-3.281A11,11,0,0,1,22.05,4ZM12,20a1,1,0,0,1,0-2ZM9.475,28.923a2.983,2.983,0,0,1-.651-2.447L9.8,21.02A2.983,2.983,0,0,0,12,22v1a10.949,10.949,0,0,0,2.521,7H11.78A3,3,0,0,1,9.475,28.923ZM19.3,37.954A1,1,0,0,0,20,37V33.574a10.776,10.776,0,0,0,6,0V37a1,1,0,0,0,.7.954l1.982.619A6.023,6.023,0,0,1,23,42a6.021,6.021,0,0,1-5.683-3.426ZM4,49.35a8.95,8.95,0,0,1,6.318-8.586l1.345-.421L11.4,43.011A6.955,6.955,0,0,1,9.45,47.186,10.234,10.234,0,0,0,7,54a10.752,10.752,0,0,0,1.791,6H4ZM60,59a1,1,0,0,1-1,1H37a1,1,0,0,1-1-1V28a1,1,0,0,1,1-1H59a1,1,0,0,1,1,1Z"/><path d="M57,29H39a1,1,0,0,0-1,1v8a1,1,0,0,0,1,1H57a1,1,0,0,0,1-1V30A1,1,0,0,0,57,29Zm-1,8H40V31H56Z"/><rect x="51" y="33" width="2" height="2"/><rect x="47" y="33" width="2" height="2"/><rect x="43" y="33" width="2" height="2"/><rect x="17" y="19" width="2" height="2"/><rect x="27" y="19" width="2" height="2"/><path d="M23,27a2,2,0,0,1-2-2H19a4,4,0,0,0,8,0H25A2,2,0,0,1,23,27Z"/><path d="M24.805,17.619a2.941,2.941,0,0,0-3.61,0A3.981,3.981,0,1,0,22,20a1,1,0,0,1,2,0,4.039,4.039,0,1,0,.8-2.381ZM18,22a2,2,0,1,1,2-2A2,2,0,0,1,18,22Zm10-4a2,2,0,1,1-2,2A2,2,0,0,1,28,18Z"/></g></svg>
